
<svg version="1.1" id="Layer_1" xmlns="http://www.w3.org/2000/svg" xmlns:xlink="http://www.w3.org/1999/xlink" x="0px" y="0px"
	 width="50px" height="50px" viewBox="0 0 50 50" enable-background="new 0 0 50 50" xml:space="preserve">
<g>
	<defs>
		<rect id="SVGID_1_" x="8.5" y="8.5" width="33" height="33"/>
	</defs>
	<clipPath id="SVGID_00000129172864549092919440000002527492161936320663_">
		<use xlink:href="#SVGID_1_"  overflow="visible"/>
	</clipPath>
	<g clip-path="url(#SVGID_00000129172864549092919440000002527492161936320663_)">
		<path fill="currentColor" d="M19.5,25c0-3,2.5-5.5,5.5-5.5c3,0,5.5,2.5,5.5,5.5c0,3-2.5,5.5-5.5,5.5C22,30.5,19.5,28,19.5,25z M16.5,25
			c0,4.7,3.8,8.5,8.5,8.5c4.7,0,8.5-3.8,8.5-8.5c0-4.7-3.8-8.5-8.5-8.5C20.3,16.5,16.5,20.3,16.5,25z M31.8,16.2c0,1.1,0.9,2,2,2
			c1.1,0,2-0.9,2-2c0-1.1-0.9-2-2-2C32.7,14.2,31.8,15.1,31.8,16.2z M18.3,38.4c-1.6-0.1-2.5-0.3-3.1-0.6c-0.8-0.3-1.3-0.7-1.9-1.2
			c-0.6-0.6-0.9-1.1-1.2-1.9c-0.2-0.6-0.5-1.5-0.6-3.1c-0.1-1.7-0.1-2.3-0.1-6.7c0-4.4,0-4.9,0.1-6.7c0.1-1.6,0.3-2.5,0.6-3.1
			c0.3-0.8,0.7-1.3,1.2-1.9c0.6-0.6,1.1-0.9,1.9-1.2c0.6-0.2,1.5-0.5,3.1-0.6c1.7-0.1,2.3-0.1,6.7-0.1c4.4,0,4.9,0,6.7,0.1
			c1.6,0.1,2.5,0.3,3.1,0.6c0.8,0.3,1.3,0.7,1.9,1.2c0.6,0.6,0.9,1.1,1.2,1.9c0.2,0.6,0.5,1.5,0.6,3.1c0.1,1.7,0.1,2.3,0.1,6.7
			c0,4.4,0,4.9-0.1,6.7c-0.1,1.6-0.3,2.5-0.6,3.1c-0.3,0.8-0.7,1.3-1.2,1.9c-0.6,0.6-1.1,0.9-1.9,1.2c-0.6,0.2-1.5,0.5-3.1,0.6
			c-1.7,0.1-2.3,0.1-6.7,0.1C20.6,38.5,20.1,38.5,18.3,38.4z M18.2,8.6c-1.8,0.1-3,0.4-4,0.8c-1.1,0.4-2,1-2.9,1.9
			c-0.9,0.9-1.5,1.8-1.9,2.9c-0.4,1-0.7,2.2-0.8,4C8.5,20,8.5,20.5,8.5,25c0,4.5,0,5,0.1,6.8c0.1,1.8,0.4,3,0.8,4
			c0.4,1.1,1,2,1.9,2.9c0.9,0.9,1.8,1.5,2.9,1.9c1.1,0.4,2.2,0.7,4,0.8c1.8,0.1,2.3,0.1,6.8,0.1c4.5,0,5,0,6.8-0.1
			c1.8-0.1,3-0.4,4-0.8c1.1-0.4,2-1,2.9-1.9c0.9-0.9,1.5-1.8,1.9-2.9c0.4-1,0.7-2.2,0.8-4c0.1-1.8,0.1-2.3,0.1-6.8
			c0-4.5,0-5-0.1-6.8c-0.1-1.8-0.4-3-0.8-4c-0.4-1.1-1-2-1.9-2.9c-0.9-0.9-1.8-1.5-2.9-1.9c-1.1-0.4-2.2-0.7-4-0.8
			C30,8.5,29.5,8.5,25,8.5C20.5,8.5,20,8.5,18.2,8.6z"/>
	</g>
</g>
</svg>
