<svg version="1.1" id="Layer_1" xmlns="http://www.w3.org/2000/svg" xmlns:xlink="http://www.w3.org/1999/xlink" x="0px" y="0px"
	 width="50px" height="50px" viewBox="0 0 50 50" enable-background="new 0 0 50 50" xml:space="preserve">
<g>
	<defs>
		<rect id="SVGID_1_" x="10" y="6" width="30" height="38"/>
	</defs>
	<clipPath id="SVGID_00000105425622541779270140000001241275390891992493_">
		<use xlink:href="#SVGID_1_"  overflow="visible"/>
	</clipPath>
	<g clip-path="url(#SVGID_00000105425622541779270140000001241275390891992493_)">
		<path fill="currentColor" d="M10,19.6c0-1.6,0.3-3.2,1-4.7c0.7-1.6,1.7-3,2.9-4.4c1.3-1.3,3-2.4,5-3.3C21.1,6.4,23.4,6,25.9,6
			C30,6,33.4,7.2,36,9.7c2.6,2.5,4,5.4,4,8.8c0,4.3-1.1,7.9-3.4,10.7c-2.2,2.8-5.1,4.2-8.7,4.2c-1.2,0-2.3-0.3-3.3-0.8
			c-1-0.5-1.7-1.2-2.2-1.9l-1.6,6c-0.1,0.5-0.3,1-0.5,1.5c-0.2,0.5-0.4,1-0.7,1.4c-0.2,0.5-0.5,0.9-0.7,1.3
			c-0.2,0.4-0.5,0.8-0.7,1.1c-0.2,0.4-0.5,0.7-0.6,0.9c-0.2,0.2-0.3,0.4-0.5,0.6L17,43.9C16.9,44,16.8,44,16.7,44
			c-0.1,0-0.2-0.1-0.2-0.2c0,0,0-0.2-0.1-0.5c0-0.3-0.1-0.7-0.1-1c0-0.4-0.1-0.8-0.1-1.4c0-0.6-0.1-1.1,0-1.7s0.1-1.1,0.1-1.8
			c0.1-0.7,0.2-1.3,0.3-1.8c0.3-1.2,1.2-5.2,2.9-11.9c-0.2-0.4-0.4-0.9-0.5-1.5c-0.1-0.6-0.2-1-0.2-1.4l0-0.6c0-1.6,0.4-3,1.3-4
			c0.8-1.1,1.9-1.6,3-1.6c1,0,1.7,0.3,2.2,0.9c0.5,0.6,0.8,1.4,0.8,2.3c0,0.6-0.1,1.3-0.3,2.1c-0.2,0.8-0.5,1.8-0.9,2.9
			c-0.4,1.1-0.6,2-0.8,2.7c-0.3,1.1,0,2.1,0.7,3c0.7,0.8,1.7,1.3,2.8,1.3c2,0,3.7-1.1,5.1-3.4c1.3-2.3,2-5,2-8.2
			c0-2.5-0.8-4.5-2.4-6c-1.6-1.6-3.9-2.3-6.8-2.3c-3.3,0-5.9,1-7.9,3.1c-2,2.1-3,4.5-3,7.4c0,1.7,0.5,3.1,1.5,4.3
			c0.3,0.4,0.4,0.8,0.3,1.2c-0.1,0.1-0.1,0.4-0.2,0.9c-0.1,0.5-0.2,0.7-0.2,0.9c-0.1,0.3-0.2,0.5-0.4,0.6c-0.2,0.1-0.4,0.1-0.7,0
			c-1.5-0.6-2.7-1.7-3.4-3.1C10.4,23.3,10,21.6,10,19.6z"/>
	</g>
</g>
</svg>
