<svg width="64" height="64" viewBox="0 0 64 64" fill="none" xmlns="http://www.w3.org/2000/svg">
<g clip-path="url(#clip0_1_320)">
<path d="M8.30518 11.0397C8.15528 11.0942 8.02088 11.1843 7.91353 11.3023C7.80619 11.4203 7.72912 11.5625 7.68896 11.7169L5.04296 21.5607C5.00716 21.6593 4.98723 21.7629 4.9839 21.8678H1.47559C1.21451 21.8678 0.964134 21.9715 0.779528 22.1561C0.594922 22.3407 0.491211 22.5911 0.491211 22.8522L0.491211 50.4147C0.491211 50.6757 0.594922 50.9261 0.779528 51.1107C0.964134 51.2953 1.21451 51.399 1.47559 51.399H40.8506C41.025 51.4008 41.1968 51.3561 41.3483 51.2696C41.4999 51.1831 41.6257 51.0579 41.7129 50.9068L45.9575 43.463C47.7307 43.6662 49.5142 43.1814 50.9404 42.1085C52.4072 40.9922 53.2655 39.3503 53.5254 37.6178H56.6006C57.9059 37.6178 59.1836 38.11 60.1069 39.0333C61.0322 39.9567 61.5225 41.2344 61.5225 42.5397C61.5225 42.8007 61.6262 43.0511 61.8108 43.2357C61.9954 43.4203 62.2458 43.524 62.5068 43.524C62.7679 43.524 63.0183 43.4203 63.2029 43.2357C63.3875 43.0511 63.4912 42.8007 63.4912 42.5397C63.4912 40.7127 62.7529 38.9723 61.4614 37.6788C60.8244 37.0376 60.0671 36.5283 59.2331 36.1801C58.399 35.8318 57.5044 35.6513 56.6006 35.649H53.5234C53.4388 35.0624 53.3364 34.4914 53.0942 33.9264C52.6916 33.0015 52.0922 32.1755 51.3377 31.506C50.5832 30.8365 49.6918 30.3396 48.7256 30.0499L47.6172 22.0528C47.5863 21.8618 47.4998 21.6841 47.3685 21.5419C47.2372 21.3997 47.0669 21.2994 46.8789 21.2535L31.6841 17.192L8.8584 11.0397C8.67778 10.9868 8.48579 10.9868 8.30518 11.0397ZM9.35059 13.1935L31.1919 19.0367L45.7725 22.9742L46.6958 29.7428C46.4379 29.7428 46.2174 29.7743 45.9575 29.8038L41.7109 22.36C41.6239 22.2092 41.4984 22.0842 41.3472 21.9977C41.1961 21.9112 41.0247 21.8664 40.8506 21.8678H7.01171L9.35059 13.1935ZM2.45996 23.8365H40.2363L47.5561 36.6334L44.9731 41.1871C44.5061 41.0101 44.0696 40.761 43.6797 40.4489C43.2973 40.1314 42.9654 39.7576 42.6953 39.3404C43.4004 38.615 43.7976 37.645 43.8037 36.6334C43.8013 35.9845 43.6369 35.3464 43.3254 34.7771C43.0139 34.2077 42.5652 33.7252 42.02 33.3732C41.9632 33.3249 41.9011 33.2833 41.835 33.2491C41.239 32.8944 40.5598 32.7035 39.8662 32.6959C37.7065 32.6959 35.9287 34.4737 35.9287 36.6334C35.9287 38.7931 37.7065 40.5709 39.8662 40.5709C40.2718 40.5709 40.6675 40.502 41.0356 40.3859C41.4215 40.9725 41.8822 41.5277 42.4492 41.9864C42.9197 42.3625 43.3942 42.6716 43.9258 42.9078L40.2363 49.4303H2.45996V23.8365ZM6.39746 30.296V42.9708H8.36621V37.7399H10.9512V35.9562H8.36621V32.0817H11.6895V30.296H6.39746ZM12.6108 30.296V42.9708H14.6426V37.8029H15.3179C16.2235 37.8029 16.6113 38.2242 16.6113 39.4015V41.4332C16.6113 42.4648 16.6861 42.644 16.7944 42.9688H18.8242C18.6273 42.5003 18.5801 42.0475 18.5801 41.4332V39.4645C18.5801 38.1415 18.2848 37.1728 17.2866 36.7574C18.1745 36.3401 18.5781 35.5368 18.5781 34.2335V33.1881C18.5781 31.2331 17.6922 30.296 15.625 30.296H12.6128H12.6108ZM19.9326 30.296V42.9708H25.3467V41.1852H21.9014V37.4327H24.6084V35.649H21.9014V32.0797H25.3467V30.296H19.9326ZM26.5771 30.296V42.9708H31.9912V41.1852H28.5459V37.4327H31.314V35.649H28.5459V32.0797H31.9912V30.296H26.5771ZM14.6406 32.0797H15.5659C16.2707 32.0797 16.6094 32.5286 16.6094 33.4342V34.6647C16.6094 35.6786 16.1231 36.0192 15.3809 36.0192H14.6426V32.0817L14.6406 32.0797ZM49.0937 32.3258C50.0328 32.8396 50.7987 33.6252 51.2476 34.6647C51.6843 35.68 51.7703 36.8119 51.4918 37.8815C51.2134 38.9511 50.5864 39.8975 49.71 40.5709C48.9126 41.1793 48.0109 41.4962 47.064 41.5553L49.5879 37.1256C49.6533 36.9913 49.6873 36.8438 49.6873 36.6944C49.6873 36.545 49.6533 36.3976 49.5879 36.2633C49.5904 36.2226 49.5904 36.1819 49.5879 36.1412V36.0802C49.5886 36.0592 49.5886 36.0382 49.5879 36.0172L49.0957 32.3258H49.0937ZM39.8662 34.6647C39.9784 34.6647 40.067 34.708 40.1733 34.7257C39.8324 35.8653 39.7904 37.0735 40.0513 38.234C40.0749 38.3384 40.0828 38.4368 40.1123 38.5411C40.0237 38.5529 39.9568 38.6022 39.8662 38.6022C38.7716 38.6022 37.8975 37.728 37.8975 36.6334C37.8975 35.5388 38.7716 34.6647 39.8662 34.6647Z" fill="black"/>
</g>
<defs>
<clipPath id="clip0_1_320">
<rect width="63" height="63" fill="white" transform="translate(0.491211 0.211426)"/>
</clipPath>
</defs>
</svg>
