<svg width="83" height="87" viewBox="0 0 83 87" fill="none" xmlns="http://www.w3.org/2000/svg">
<path d="M67.4965 15.5525C56.5598 5.92511 40.7024 2.75362 26.3648 8.76626C6.36719 17.1545 -3.04284 40.1661 5.34369 60.1638C13.7302 80.1614 36.7436 89.5714 56.7412 81.1832C76.7388 72.7966 86.1488 49.785 77.7623 29.7874C77.185 28.426 76.5319 27.098 75.806 25.8098" stroke="black" stroke-width="4" stroke-miterlimit="10" stroke-linecap="round" stroke-linejoin="round"/>
<path d="M54.4115 19.7321L68.2853 15.9702L64.525 2.09644M41.5528 5.7112V11.6725M14.6816 16.3347L18.8971 20.5502M2.27808 43.1734H8.24108M12.9529 71.7732L17.1702 67.5559M41.5528 84.2503V78.2873M70.1526 71.7732L65.9353 67.5559M80.8274 43.1734H74.8644" stroke="black" stroke-width="4" stroke-miterlimit="10" stroke-linecap="round" stroke-linejoin="round"/>
<path d="M41.5531 50.4508C44.5741 50.4508 47.0232 48.0017 47.0232 44.9807C47.0232 41.9597 44.5741 39.5106 41.5531 39.5106C38.532 39.5106 36.083 41.9597 36.083 44.9807C36.083 48.0017 38.532 50.4508 41.5531 50.4508Z" stroke="black" stroke-width="4" stroke-miterlimit="10" stroke-linecap="round" stroke-linejoin="round"/>
<path d="M41.553 39.5193V20.5503M36.0846 44.9876H24.6841" stroke="black" stroke-width="4" stroke-miterlimit="10" stroke-linecap="round" stroke-linejoin="round"/>
</svg>
