<svg width="15" height="14" viewBox="0 0 15 14" fill="none" xmlns="http://www.w3.org/2000/svg">
<path d="M12.5887 8.16675C12.434 8.16675 12.2856 8.22821 12.1762 8.3376C12.0668 8.447 12.0054 8.59537 12.0054 8.75008V11.0834C12.0054 11.2381 11.9439 11.3865 11.8345 11.4959C11.7251 11.6053 11.5767 11.6667 11.422 11.6667H3.25537C3.10066 11.6667 2.95229 11.6053 2.84289 11.4959C2.7335 11.3865 2.67204 11.2381 2.67204 11.0834V8.75008C2.67204 8.59537 2.61058 8.447 2.50118 8.3376C2.39179 8.22821 2.24341 8.16675 2.0887 8.16675C1.93399 8.16675 1.78562 8.22821 1.67623 8.3376C1.56683 8.447 1.50537 8.59537 1.50537 8.75008V11.0834C1.50537 11.5475 1.68975 11.9927 2.01793 12.3209C2.34612 12.649 2.79124 12.8334 3.25537 12.8334H11.422C11.8862 12.8334 12.3313 12.649 12.6595 12.3209C12.9877 11.9927 13.172 11.5475 13.172 11.0834V8.75008C13.172 8.59537 13.1106 8.447 13.0012 8.3376C12.8918 8.22821 12.7434 8.16675 12.5887 8.16675ZM6.92454 9.16425C6.98002 9.21736 7.04543 9.25899 7.11704 9.28675C7.18686 9.31761 7.26236 9.33355 7.33871 9.33355C7.41505 9.33355 7.49055 9.31761 7.56037 9.28675C7.63198 9.25899 7.69739 9.21736 7.75287 9.16425L10.0862 6.83091C10.196 6.72107 10.2578 6.57209 10.2578 6.41675C10.2578 6.26141 10.196 6.11243 10.0862 6.00258C9.97636 5.89274 9.82738 5.83103 9.67204 5.83103C9.5167 5.83103 9.36772 5.89274 9.25787 6.00258L7.92204 7.34425V1.75008C7.92204 1.59537 7.86058 1.447 7.75118 1.3376C7.64179 1.22821 7.49341 1.16675 7.33871 1.16675C7.184 1.16675 7.03562 1.22821 6.92623 1.3376C6.81683 1.447 6.75537 1.59537 6.75537 1.75008V7.34425L5.41954 6.00258C5.36515 5.94819 5.30058 5.90505 5.22952 5.87561C5.15845 5.84618 5.08229 5.83103 5.00537 5.83103C4.92845 5.83103 4.85229 5.84618 4.78123 5.87561C4.71016 5.90505 4.64559 5.94819 4.5912 6.00258C4.53682 6.05697 4.49367 6.12154 4.46424 6.1926C4.4348 6.26367 4.41965 6.33983 4.41965 6.41675C4.41965 6.49367 4.4348 6.56983 4.46424 6.64089C4.49367 6.71196 4.53682 6.77653 4.5912 6.83091L6.92454 9.16425Z" fill="#CECECE"/>
</svg>
