<svg width="42" height="43" viewBox="0 0 42 43" fill="none" xmlns="http://www.w3.org/2000/svg">
<g clip-path="url(#clip0_1_655)">
<path d="M41.7291 21.8721C41.7291 20.1513 41.5896 18.8957 41.2877 17.5935H21.6591V25.36H33.1806C32.9484 27.2901 31.6941 30.1967 28.9065 32.1499L28.8674 32.4099L35.0736 37.2227L35.5036 37.2657C39.4525 33.6149 41.7291 28.2434 41.7291 21.8721Z" fill="#4285F4"/>
<path d="M21.6591 42.3349C27.3037 42.3349 32.0424 40.4746 35.5036 37.2657L28.9065 32.1499C27.1411 33.3823 24.7717 34.2427 21.6591 34.2427C16.1306 34.2427 11.4383 30.5921 9.76567 25.5461L9.52049 25.567L3.06718 30.5664L2.98279 30.8013C6.42067 37.6377 13.4824 42.3349 21.6591 42.3349Z" fill="#34A853"/>
<path d="M9.76563 25.5461C9.32429 24.244 9.06886 22.8487 9.06886 21.4071C9.06886 19.9653 9.32429 18.5701 9.74241 17.268L9.73072 16.9906L3.19654 11.9109L2.98275 12.0127C1.56584 14.8496 0.752808 18.0354 0.752808 21.4071C0.752808 24.7788 1.56584 27.9643 2.98275 30.8013L9.76563 25.5461Z" fill="#FBBC05"/>
<path d="M21.6591 8.5713C25.5848 8.5713 28.2328 10.2688 29.7428 11.6873L35.643 5.92049C32.0193 2.54879 27.3037 0.479248 21.6591 0.479248C13.4824 0.479248 6.42067 5.17635 2.98279 12.0127L9.74245 17.268C11.4383 12.2221 16.1306 8.5713 21.6591 8.5713Z" fill="#EB4335"/>
</g>
<defs>
<clipPath id="clip0_1_655">
<rect width="41" height="42" fill="white" transform="translate(0.750732 0.479248)"/>
</clipPath>
</defs>
</svg>
