<svg width="641" height="636" viewBox="0 0 641 636" fill="none" xmlns="http://www.w3.org/2000/svg">
<path opacity="0.07" d="M445.237 397.099C154.179 22.0232 364.731 -113.538 445.237 106.254C525.828 -20.4366 736.294 358.429 445.237 397.099Z" fill="url(#paint0_linear_312_2785)"/>
<path opacity="0.4" d="M417.711 431.549C126.654 56.3872 337.206 -79.0879 417.711 140.704C498.303 14.0136 708.769 392.879 417.711 431.549Z" fill="url(#paint1_linear_312_2785)"/>
<path opacity="0.2" d="M83.7373 266.878C88.8979 269.806 93.0264 277.041 93.0264 282.983V309.251L110.4 319.242C115.561 322.17 119.689 329.405 119.689 335.347C119.689 341.29 115.561 343.702 110.4 340.773L93.0264 330.783V357.051C93.0264 362.994 88.8979 365.405 83.7373 362.477C78.5767 359.549 74.4482 352.314 74.4482 346.372V320.103L57.0742 310.113C51.9136 307.184 47.7851 299.95 47.7851 294.007C47.7851 288.065 51.9136 285.653 57.0742 288.581L74.4482 298.572V272.304C74.3622 266.275 78.5767 263.863 83.7373 266.878Z" fill="url(#paint2_linear_312_2785)"/>
<path opacity="0.25" d="M154.523 239.404L315.275 332.247V630.499L154.523 537.57V239.404Z" fill="url(#paint3_linear_312_2785)"/>
<path opacity="0.15" d="M170.348 416.391L299.449 490.975V502.688L170.348 428.104V416.391Z" fill="white"/>
<path opacity="0.15" d="M179.381 444.211L290.42 508.374V520.087L179.381 455.924V444.211Z" fill="white"/>
<path d="M226.254 500.45L114.441 435.77V469.1L226.254 533.78V500.45Z" fill="#183194"/>
<path d="M253.264 356.621C253.264 371.09 244.921 377.894 234.6 371.865C224.278 365.836 215.935 349.3 215.935 334.831C215.935 320.362 224.278 313.558 234.6 319.587C244.921 325.616 253.264 342.152 253.264 356.621Z" fill="#F8D448"/>
<path d="M234.596 383.491C217.996 373.759 204.32 382.888 201.826 403.817C201.396 407.434 204.148 412.257 207.503 414.152L261.689 445.76C265.043 447.74 267.796 446.104 267.366 442.056C264.871 418.286 251.196 393.137 234.596 383.491Z" fill="#F8D448"/>
<path opacity="0.25" d="M611.322 501.999L355.271 354.035V487.616L611.322 635.579V501.999Z" fill="url(#paint4_linear_312_2785)"/>
<path opacity="0.15" d="M438.526 449.549L512.236 492.181V503.894L438.526 461.262V449.549Z" fill="white"/>
<path opacity="0.15" d="M438.528 472.027L588.873 558.928V570.641L438.442 483.74L438.528 472.027Z" fill="white"/>
<path d="M640.049 543.686L528.236 479.006V512.336L640.049 577.016V543.686Z" fill="#183194"/>
<path d="M415.906 454.375C415.906 469.188 407.219 476.25 396.554 470.049C385.889 463.848 377.202 446.796 377.202 431.982C377.202 417.168 385.889 410.106 396.554 416.307C407.219 422.508 415.906 439.561 415.906 454.375Z" fill="#F8D448"/>
<path opacity="0.25" d="M256.1 183.336L0.0481262 35.373V168.953L256.1 316.917V183.336Z" fill="url(#paint5_linear_312_2785)"/>
<path opacity="0.15" d="M83.308 131.92L209.227 204.696V216.409L83.3941 143.633L83.308 131.92Z" fill="white"/>
<path opacity="0.15" d="M83.3069 154.398L233.738 241.299V253.012L83.3069 166.111V154.398Z" fill="white"/>
<path d="M48.5581 105.479C48.5581 104.015 47.5259 102.292 46.3218 101.603L36.4306 95.9188C35.2265 95.2298 34.1944 95.7465 34.1944 97.2107V107.029C34.1944 109.01 32.0442 110.302 30.324 109.268L24.2173 105.737C23.0131 105.048 21.981 105.565 21.981 107.029V121.756C21.981 123.221 23.0131 124.943 24.2173 125.632L32.9043 130.627C33.6783 131.058 34.1944 131.919 34.1944 132.867V145.699C34.1944 147.163 35.2265 148.886 36.4306 149.575L46.3218 155.259C47.5259 155.948 48.5581 155.431 48.5581 153.967V144.149C48.5581 142.168 50.7083 140.876 52.4285 141.91L58.5352 145.441C59.7393 146.13 60.7715 145.613 60.7715 144.149V129.422C60.7715 127.957 59.7393 126.235 58.5352 125.546L49.8482 120.551C49.0741 120.12 48.5581 119.259 48.5581 118.311V105.479Z" fill="#F8D448"/>
<defs>
<linearGradient id="paint0_linear_312_2785" x1="587.328" y1="98.5327" x2="338.561" y2="237.606" gradientUnits="userSpaceOnUse">
<stop stop-color="white"/>
<stop offset="1" stop-color="white" stop-opacity="0"/>
</linearGradient>
<linearGradient id="paint1_linear_312_2785" x1="559.804" y1="132.983" x2="311.036" y2="272.056" gradientUnits="userSpaceOnUse">
<stop stop-color="white"/>
<stop offset="1" stop-color="white" stop-opacity="0"/>
</linearGradient>
<linearGradient id="paint2_linear_312_2785" x1="101.685" y1="300.426" x2="56.6056" y2="335.955" gradientUnits="userSpaceOnUse">
<stop stop-color="white"/>
<stop offset="1" stop-color="white" stop-opacity="0"/>
</linearGradient>
<linearGradient id="paint3_linear_312_2785" x1="332.503" y1="265.619" x2="189.517" y2="513.012" gradientUnits="userSpaceOnUse">
<stop stop-color="white"/>
<stop offset="1" stop-color="white" stop-opacity="0"/>
</linearGradient>
<linearGradient id="paint4_linear_312_2785" x1="483.113" y1="381.889" x2="483.492" y2="604.103" gradientUnits="userSpaceOnUse">
<stop stop-color="white"/>
<stop offset="1" stop-color="white" stop-opacity="0"/>
</linearGradient>
<linearGradient id="paint5_linear_312_2785" x1="127.895" y1="63.2275" x2="128.274" y2="285.442" gradientUnits="userSpaceOnUse">
<stop stop-color="white"/>
<stop offset="1" stop-color="white" stop-opacity="0"/>
</linearGradient>
</defs>
</svg>
