<svg width="96" height="94" viewBox="0 0 96 94" fill="none" xmlns="http://www.w3.org/2000/svg">
<path d="M6.09058 51.533H12.0281C12.9187 51.533 13.5125 50.9517 13.5125 50.0798C13.5125 49.208 12.9187 48.6267 12.0281 48.6267H6.09058C5.19995 48.6267 4.6062 48.0455 4.6062 47.1736C4.6062 46.3017 5.19995 45.7205 6.09058 45.7205H31.0281C31.9187 45.7205 32.5124 45.1392 32.5124 44.2673C32.5124 43.3955 31.9187 42.8142 31.0281 42.8142H7.57495V6.48608C7.57495 5.61421 8.1687 5.03296 9.05933 5.03296H12.4734C13.364 5.03296 13.9578 4.45171 13.9578 3.57983C13.9578 2.70796 13.364 2.12671 12.4734 2.12671H9.05933C6.68433 2.12671 4.6062 4.16108 4.6062 6.48608V43.1048C2.82495 43.6861 1.63745 45.2845 1.63745 47.1736C1.63745 49.6439 3.56714 51.533 6.09058 51.533Z" fill="black"/>
<path d="M31.0281 48.6267H17.9656C17.075 48.6267 16.4812 49.208 16.4812 50.0798C16.4812 50.9517 17.075 51.533 17.9656 51.533H31.0281C31.9187 51.533 32.5124 50.9517 32.5124 50.0798C32.5124 49.208 31.7703 48.6267 31.0281 48.6267ZM90.7 35.5486C90.7 34.6767 90.1062 34.0955 89.2156 34.0955C88.325 34.0955 87.7312 34.6767 87.7312 35.5486V42.8142H64.1296C63.239 42.8142 62.6453 43.3955 62.6453 44.2673C62.6453 45.1392 63.239 45.7205 64.1296 45.7205H89.2156C90.1062 45.7205 90.7 46.3017 90.7 47.1736C90.7 48.0455 90.1062 48.6267 89.2156 48.6267H64.1296C63.239 48.6267 62.6453 49.208 62.6453 50.0798C62.6453 50.9517 63.239 51.533 64.1296 51.533H89.2156C91.739 51.533 93.6687 49.6439 93.6687 47.1736C93.6687 45.2845 92.4812 43.6861 90.7 43.1048V35.5486ZM26.575 5.03296H86.2468C87.1375 5.03296 87.7312 5.61421 87.7312 6.48608V29.7361C87.7312 30.608 88.325 31.1892 89.2156 31.1892C90.1062 31.1892 90.7 30.608 90.7 29.7361V6.48608C90.7 4.01577 88.6218 2.12671 86.2468 2.12671H26.575C25.6843 2.12671 25.0906 2.70796 25.0906 3.57983C25.0906 4.45171 25.8328 5.03296 26.575 5.03296ZM17.9656 5.03296H20.7859C21.6765 5.03296 22.2703 4.45171 22.2703 3.57983C22.2703 2.70796 21.6765 2.12671 20.7859 2.12671H17.9656C17.075 2.12671 16.4812 2.70796 16.4812 3.57983C16.4812 4.45171 17.075 5.03296 17.9656 5.03296Z" fill="black"/>
<path d="M55.075 23.9236V18.1111C55.075 17.2392 54.4812 16.658 53.5906 16.658H47.6531C43.4968 16.658 40.2312 19.8548 40.2312 23.9236C40.2312 27.9923 43.4968 31.1892 47.6531 31.1892C51.8093 31.1892 55.075 27.9923 55.075 23.9236ZM52.1062 23.9236C52.1062 26.3939 50.1765 28.283 47.6531 28.283C45.1296 28.283 43.2 26.3939 43.2 23.9236C43.2 21.4533 45.1296 19.5642 47.6531 19.5642H52.1062V23.9236ZM92.1843 89.3142H86.2468C85.3562 89.3142 84.7625 89.8955 84.7625 90.7673C84.7625 91.6392 85.3562 92.2205 86.2468 92.2205H92.1843C93.075 92.2205 93.6687 91.6392 93.6687 90.7673C93.6687 89.8955 93.075 89.3142 92.1843 89.3142ZM50.6218 89.3142H31.325V82.0486C31.325 81.1767 30.7312 80.5955 29.8406 80.5955C28.95 80.5955 28.3562 81.1767 28.3562 82.0486V89.3142H23.9031C23.0125 89.3142 22.4187 89.8955 22.4187 90.7673C22.4187 91.6392 23.0125 92.2205 23.9031 92.2205H50.6218C51.5125 92.2205 52.1062 91.6392 52.1062 90.7673C52.1062 89.8955 51.5125 89.3142 50.6218 89.3142Z" fill="black"/>
<path d="M80.3093 89.3142H66.95V63.158H68.4343C70.9578 63.158 72.8875 61.2689 72.8875 58.7986C72.8875 56.3283 70.9578 54.4392 68.4343 54.4392H26.8718C24.3484 54.4392 22.4187 56.3283 22.4187 58.7986C22.4187 61.2689 24.3484 63.158 26.8718 63.158H28.3562V76.2361C28.3562 77.108 28.95 77.6892 29.8406 77.6892C30.7312 77.6892 31.325 77.108 31.325 76.2361V63.158H53.5906C54.4812 63.158 55.075 62.5767 55.075 61.7048C55.075 60.833 54.4812 60.2517 53.5906 60.2517H26.8718C25.9812 60.2517 25.3875 59.6705 25.3875 58.7986C25.3875 57.9267 25.9812 57.3455 26.8718 57.3455H68.4343C69.325 57.3455 69.9187 57.9267 69.9187 58.7986C69.9187 59.6705 69.325 60.2517 68.4343 60.2517H59.5281C58.6375 60.2517 58.0437 60.833 58.0437 61.7048C58.0437 62.5767 58.6375 63.158 59.5281 63.158H63.9812V89.3142H56.5593C55.6687 89.3142 55.075 89.8955 55.075 90.7673C55.075 91.6392 55.6687 92.2205 56.5593 92.2205H80.3093C81.2 92.2205 81.7937 91.6392 81.7937 90.7673C81.7937 89.8955 81.2 89.3142 80.3093 89.3142ZM17.9656 89.3142H3.12183C2.2312 89.3142 1.63745 89.8955 1.63745 90.7673C1.63745 91.6392 2.2312 92.2205 3.12183 92.2205H17.9656C18.8562 92.2205 19.45 91.6392 19.45 90.7673C19.45 89.8955 18.8562 89.3142 17.9656 89.3142ZM47.6531 39.908C46.7625 39.908 46.1687 40.4892 46.1687 41.3611V51.3876C46.1687 52.2595 46.7625 52.8408 47.6531 52.8408C48.5437 52.8408 49.1375 52.2595 49.1375 51.3876V41.3611C49.1375 40.4892 48.5437 39.908 47.6531 39.908ZM83.2781 13.7517C84.1687 13.7517 84.7625 13.1705 84.7625 12.2986V10.9908C84.7625 9.24702 83.4265 7.93921 81.6453 7.93921H80.3093C79.4187 7.93921 78.825 8.52046 78.825 9.39233C78.825 10.2642 79.4187 10.8455 80.3093 10.8455H81.7937V12.2986C81.7937 13.1705 82.3875 13.7517 83.2781 13.7517ZM74.3718 10.8455C75.2625 10.8455 75.8562 10.2642 75.8562 9.39233C75.8562 8.52046 75.2625 7.93921 74.3718 7.93921H71.4031C70.5125 7.93921 69.9187 8.52046 69.9187 9.39233C69.9187 10.2642 70.5125 10.8455 71.4031 10.8455H74.3718ZM12.0281 31.1892C11.1375 31.1892 10.5437 31.7705 10.5437 32.6423V36.7111C10.5437 38.4548 12.0281 39.908 13.8093 39.908H17.9656C18.8562 39.908 19.45 39.3267 19.45 38.4548C19.45 37.583 18.8562 37.0017 17.9656 37.0017H13.5125V32.6423C13.5125 31.7705 12.9187 31.1892 12.0281 31.1892Z" fill="black"/>
<path d="M56.5593 86.408H58.0437C59.6765 86.408 61.0125 85.1001 61.0125 83.5017V82.0486C61.0125 81.1767 60.4187 80.5955 59.5281 80.5955C58.6375 80.5955 58.0437 81.1767 58.0437 82.0486V83.5017H56.5593C55.6687 83.5017 55.075 84.083 55.075 84.9548C55.075 85.8267 55.6687 86.408 56.5593 86.408ZM59.5281 52.8408C60.4187 52.8408 61.0125 52.2595 61.0125 51.3876V41.3611C61.0125 37.2923 57.7468 34.0955 53.5906 34.0955C52.7 34.0955 52.1062 34.6767 52.1062 35.5486C52.1062 36.4205 52.7 37.0017 53.5906 37.0017C56.114 37.0017 58.0437 38.8908 58.0437 41.3611V51.3876C58.0437 52.2595 58.6375 52.8408 59.5281 52.8408ZM34.2937 41.3611V51.3876C34.2937 52.2595 34.8875 52.8408 35.7781 52.8408C36.6687 52.8408 37.2625 52.2595 37.2625 51.3876V41.3611C37.2625 38.8908 39.1921 37.0017 41.7156 37.0017C42.6062 37.0017 43.2 36.4205 43.2 35.5486C43.2 34.6767 42.6062 34.0955 41.7156 34.0955C37.5593 34.0955 34.2937 37.2923 34.2937 41.3611Z" fill="black"/>
<path d="M47.6531 37.0017C48.4729 37.0017 49.1375 36.3511 49.1375 35.5486C49.1375 34.746 48.4729 34.0955 47.6531 34.0955C46.8333 34.0955 46.1687 34.746 46.1687 35.5486C46.1687 36.3511 46.8333 37.0017 47.6531 37.0017Z" fill="black"/>
</svg>
