<svg xmlns="http://www.w3.org/2000/svg" viewBox="0 0 5938.53 971.1"><defs><style>.cls-1{fill:#f8d448;}.cls-2{fill:#fff;}</style></defs><g id="Layer_2" data-name="Layer 2"><g id="Layer_1-2" data-name="Layer 1"><ellipse class="cls-1" cx="586.21" cy="485.55" rx="130" ry="137.97"/><path class="cls-2" d="M1095.76,845.7l109.43-201.44c105.35,60.08,225.43,108,334.78,108,61.39,0,104-22.68,104-61.31,0-50.67-49.36-65.4-156-88.07-214.78-44-369.48-118.69-369.48-306.79C1118.51,100,1293.19,0,1514.68,0c152.08,0,285.42,40,389.46,125.4L1774.8,302.77c-74.72-53.29-166.81-84-253.49-84-66.71,0-109.36,16-109.36,61.31,0,37.4,38.64,62.7,153.4,86.76,240.07,49.36,369.48,118.69,369.48,296.14,0,194.73-174.76,308.1-400.18,308.1C1353.27,971.1,1197.17,919.12,1095.76,845.7Z"/><path class="cls-2" d="M2584.57,18.66H2876.7V952.43H2584.57V608.25H2263.13V952.43H1971V18.66h292.13v348.2h321.44Z"/><path class="cls-2" d="M3675.9,952.43l-53.37-141.36H3243.71L3189,952.43H2887.57L3289.06,18.66h290.82l401.49,933.77ZM3319.75,612.26h226.74L3434.43,316.12Z"/><path class="cls-2" d="M4556.45,952.43,4363,688.3H4284.3V952.43H3993.55V18.66h426.86c266.76,0,430.8,126.71,430.8,336.17,0,140.05-72,241.46-198.74,293.44l224.11,304.16ZM4284.3,250.79V472.21h128.09c90.7,0,148.07-37.33,148.07-112.06,0-70.72-57.37-109.36-148.07-109.36Z"/><path class="cls-2" d="M5633.05,952.43l-53.36-141.36H5200.87l-54.68,141.36H4844.73L5246.22,18.66H5537l401.49,933.77ZM5276.91,612.26h226.74L5391.59,316.12Z"/><path class="cls-2" d="M1096.53,484.32c0,281.14-217.17,486.46-515.68,486.46-268.5,0-470.67-165-507-402.75H21c-19,0-27.64-28.43-15-45l63.18-82.12,71.07-93.19,66.34-86.08c7.9-10.27,20.53-10.27,29.22,0l81.34,105.82L370,436.94l64.75,84.5c12.64,16.58,3.95,45.8-14.21,45.8H377.11c27.63,94.76,105,155.57,205.32,155.57C708.79,722.81,798,627.26,798,486.69c0-141.36-89.23-240.07-215.59-240.07-90,0-161.1,49-195.06,128.72L242.06,202.39a27.61,27.61,0,0,0-42.64,0l-111.35,139C148.09,137.64,337.62.23,582.43.23,880.94.23,1096.53,204,1096.53,484.32Z"/></g></g></svg>