<svg width="113" height="112" viewBox="0 0 113 112" fill="none" xmlns="http://www.w3.org/2000/svg">
<g clip-path="url(#clip0_1_1208)">
<path d="M14.3444 19.7518C14.0779 19.8478 13.839 20.0066 13.6481 20.2145C13.4573 20.4223 13.3203 20.673 13.2489 20.945L8.54488 38.2888C8.48124 38.4625 8.4458 38.6452 8.43988 38.8299H2.20288C1.73875 38.8299 1.29363 39.0126 0.965444 39.3379C0.637255 39.6631 0.452881 40.1043 0.452881 40.5643L0.452881 89.1268C0.452881 89.5868 0.637255 90.0279 0.965444 90.3532C1.29363 90.6784 1.73875 90.8611 2.20288 90.8611H72.2029C72.513 90.8642 72.8184 90.7855 73.0878 90.6331C73.3571 90.4808 73.5808 90.2602 73.7359 89.994L81.2819 76.8786C84.4341 77.2366 87.6048 76.3824 90.1404 74.4921C92.7479 72.5253 94.2739 69.6324 94.7359 66.5799H100.203C102.523 66.5799 104.795 67.4471 106.436 69.0739C108.081 70.7008 108.953 72.952 108.953 75.2518C108.953 75.7118 109.137 76.1529 109.465 76.4782C109.794 76.8034 110.239 76.9861 110.703 76.9861C111.167 76.9861 111.612 76.8034 111.94 76.4782C112.269 76.1529 112.453 75.7118 112.453 75.2518C112.453 72.0328 111.14 68.9664 108.844 66.6874C107.712 65.5577 106.366 64.6604 104.883 64.0468C103.4 63.4331 101.81 63.1152 100.203 63.1111H94.7324C94.5819 62.0775 94.3999 61.0715 93.9694 60.076C93.2536 58.4464 92.188 56.9912 90.8466 55.8116C89.5053 54.632 87.9206 53.7565 86.2029 53.246L84.2324 39.156C84.1775 38.8193 84.0238 38.5062 83.7903 38.2557C83.5569 38.0053 83.2541 37.8285 82.9199 37.7476L55.9069 30.5916L15.3279 19.7518C15.0068 19.6586 14.6655 19.6586 14.3444 19.7518ZM16.2029 23.5466L55.0319 33.8418L80.9529 40.7793L82.5944 52.7049C82.1359 52.7049 81.7439 52.7604 81.2819 52.8124L73.7324 39.6971C73.5776 39.4314 73.3545 39.2111 73.0858 39.0588C72.8171 38.9064 72.5124 38.8275 72.2029 38.8299H12.0449L16.2029 23.5466ZM3.95288 42.2986H71.1109L84.1239 64.8455L79.5319 72.8687C78.7015 72.5569 77.9256 72.118 77.2324 71.568C76.5526 71.0086 75.9625 70.3501 75.4824 69.6151C76.7359 68.337 77.442 66.6279 77.4529 64.8455C77.4486 63.7021 77.1563 62.5779 76.6025 61.5748C76.0488 60.5717 75.2511 59.7215 74.2819 59.1013C74.1809 59.0163 74.0705 58.943 73.9529 58.8827C72.8933 58.2577 71.6859 57.9214 70.4529 57.908C66.6134 57.908 63.4529 61.0403 63.4529 64.8455C63.4529 68.6507 66.6134 71.783 70.4529 71.783C71.1739 71.783 71.8774 71.6616 72.5319 71.457C73.2179 72.4906 74.0369 73.4688 75.0449 74.2771C75.8814 74.9396 76.7249 75.4842 77.6699 75.9004L71.1109 87.3924H3.95288V42.2986ZM10.9529 53.6796V76.0114H14.4529V66.795H19.0484V63.6523H14.4529V56.8258H20.3609V53.6796H10.9529ZM21.9989 53.6796V76.0114H25.6109V66.906H26.8114C28.4214 66.906 29.1109 67.6483 29.1109 69.7226V73.3023C29.1109 75.12 29.2439 75.4356 29.4364 76.008H33.0449C32.6949 75.1824 32.6109 74.3846 32.6109 73.3023V69.8336C32.6109 67.5026 32.0859 65.796 30.3114 65.0641C31.8899 64.3287 32.6074 62.9134 32.6074 60.6171V58.7752C32.6074 55.3307 31.0324 53.6796 27.3574 53.6796H22.0024H21.9989ZM35.0154 53.6796V76.0114H44.6404V72.8653H38.5154V66.2538H43.3279V63.1111H38.5154V56.8223H44.6404V53.6796H35.0154ZM46.8279 53.6796V76.0114H56.4529V72.8653H50.3279V66.2538H55.2489V63.1111H50.3279V56.8223H56.4529V53.6796H46.8279ZM25.6074 56.8223H27.2524C28.5054 56.8223 29.1074 57.6132 29.1074 59.2088V61.3768C29.1074 63.1632 28.2429 63.7633 26.9234 63.7633H25.6109V56.8258L25.6074 56.8223ZM86.8574 57.2559C88.5269 58.1612 89.8884 59.5453 90.6864 61.3768C91.4629 63.1657 91.6157 65.16 91.1207 67.0446C90.6256 68.9291 89.511 70.5965 87.9529 71.783C86.5354 72.8549 84.9324 73.4133 83.2489 73.5174L87.7359 65.7127C87.8522 65.4761 87.9127 65.2163 87.9127 64.9531C87.9127 64.6898 87.8522 64.43 87.7359 64.1934C87.7403 64.1218 87.7403 64.05 87.7359 63.9783V63.8708C87.7371 63.8338 87.7371 63.7968 87.7359 63.7598L86.8609 57.2559H86.8574ZM70.4529 61.3768C70.6524 61.3768 70.8099 61.4531 70.9989 61.4843C70.3928 63.4922 70.318 65.6208 70.7819 67.6656C70.8239 67.8495 70.8379 68.0229 70.8904 68.2067C70.7329 68.2276 70.6139 68.3143 70.4529 68.3143C68.5069 68.3143 66.9529 66.7741 66.9529 64.8455C66.9529 62.9169 68.5069 61.3768 70.4529 61.3768Z" fill="black"/>
</g>
<defs>
<clipPath id="clip0_1_1208">
<rect width="112" height="111" fill="white" transform="translate(0.452881 0.673584)"/>
</clipPath>
</defs>
</svg>
