<svg width="65" height="65" viewBox="0 0 65 65" fill="none" xmlns="http://www.w3.org/2000/svg">
<g clip-path="url(#clip0_1_314)">
<path d="M19.7602 35.9213C11.1902 35.9213 4.22021 28.9613 4.22021 20.4013C4.22021 19.8613 4.65021 19.4313 5.19021 19.4313H18.7902V5.82132C18.7902 5.28132 19.2202 4.85132 19.7602 4.85132C23.0402 4.85132 26.1802 5.87132 28.8402 7.80132C29.2702 8.11132 29.3702 8.72132 29.0602 9.15132C28.7502 9.58132 28.1402 9.68132 27.7102 9.37132C25.6703 7.8891 23.2555 7.00907 20.7402 6.83132V20.4013C20.7402 20.9413 20.3102 21.3713 19.7702 21.3713H6.20021C6.70021 28.4113 12.5902 33.9813 19.7702 33.9813C22.2502 33.9813 24.6602 33.3113 26.7602 32.0413C26.8691 31.9751 26.9899 31.9312 27.1159 31.9119C27.2418 31.8927 27.3703 31.8986 27.494 31.9293C27.6176 31.9599 27.734 32.0148 27.8363 32.0907C27.9386 32.1665 28.0249 32.2619 28.0902 32.3713C28.3702 32.8313 28.2202 33.4213 27.7602 33.7013C25.3602 35.1513 22.5902 35.9213 19.7602 35.9213Z" fill="black"/>
<path d="M15.7402 17.3513H1.1702C0.912935 17.3513 0.666212 17.2491 0.484302 17.0672C0.302391 16.8853 0.200195 16.6386 0.200195 16.3813C0.200195 7.81131 7.1702 0.841309 15.7402 0.841309C16.2802 0.841309 16.7102 1.27131 16.7102 1.81131V16.3813C16.7102 16.9113 16.2802 17.3513 15.7402 17.3513ZM2.1702 15.4113H14.7702V2.81131C8.04019 3.29131 2.6502 8.68131 2.1702 15.4113ZM23.1602 24.7713C22.9102 24.7713 22.6602 24.6813 22.4702 24.4913L19.0702 21.0913C18.9799 21.0015 18.9083 20.8948 18.8594 20.7772C18.8105 20.6597 18.7853 20.5336 18.7853 20.4063C18.7853 20.279 18.8105 20.1529 18.8594 20.0354C18.9083 19.9178 18.9799 19.8111 19.0702 19.7213L24.4202 14.3713C24.8002 13.9913 25.4102 13.9913 25.7902 14.3713C26.1702 14.7513 26.1702 15.3613 25.7902 15.7413L21.1302 20.4013L23.8402 23.1213C24.2202 23.5013 24.2202 24.1113 23.8402 24.4913C23.6602 24.6813 23.4102 24.7713 23.1602 24.7713Z" fill="black"/>
<path d="M37.49 41.8514C35.88 41.8514 34.28 41.4614 32.82 40.6714C28.19 38.1814 26.28 33.3614 25.71 31.5414C25.49 31.4914 25.24 31.4014 24.98 31.2514C23.82 30.5714 22.95 29.0114 22.41 26.6114C21.91 24.3914 22.12 22.7614 23.03 21.7614C23.44 21.3214 23.9 21.0814 24.32 20.9614C23.74 15.5214 23.21 7.04139 34.12 5.15139C36.36 4.76139 38.63 4.76139 40.86 5.15139C51.77 7.04139 51.24 15.5114 50.66 20.9614C51.08 21.0814 51.54 21.3214 51.95 21.7614C52.86 22.7614 53.07 24.3914 52.57 26.6114C52.03 29.0114 51.17 30.5714 50 31.2514C49.74 31.4014 49.49 31.4914 49.27 31.5514C48.7 33.3714 46.8 38.1914 42.17 40.6814C40.7299 41.4501 39.1225 41.852 37.49 41.8514ZM26.56 29.5814C26.69 29.5814 26.82 29.6214 26.97 29.6914C27.24 29.8214 27.32 30.1014 27.39 30.3914C27.4 30.4514 28.86 36.3514 33.73 38.9714C34.8844 39.5917 36.1745 39.9164 37.485 39.9164C38.7955 39.9164 40.0856 39.5917 41.24 38.9714C46.13 36.3414 47.56 30.4514 47.57 30.4014C47.64 30.1114 47.76 29.8414 48.03 29.7114C48.3 29.5814 48.53 29.5614 48.8 29.6914H48.81C49.05 29.6914 50.02 29.1014 50.67 26.1914C51.13 24.1614 50.77 23.3814 50.52 23.0914C50.21 22.7314 49.71 22.7814 49.69 22.7814C49.5459 22.795 49.4006 22.777 49.2641 22.7286C49.1277 22.6803 49.0034 22.6027 48.9 22.5014C48.7956 22.4003 48.7159 22.2763 48.6673 22.1392C48.6188 22.0022 48.6026 21.8557 48.62 21.7114L48.66 21.3514C49.28 15.7214 50.05 8.72139 40.53 7.07139C38.51 6.72139 36.47 6.72139 34.45 7.07139C24.93 8.72139 25.69 15.7114 26.3 21.3414L26.34 21.7214C26.37 22.0214 26.27 22.3114 26.05 22.5214C25.84 22.7314 25.55 22.8314 25.24 22.7914C25.24 22.7914 24.74 22.7514 24.43 23.1014C24.18 23.3914 23.82 24.1714 24.28 26.2014C24.95 29.1414 25.96 29.7214 26.22 29.6814C26.36 29.6014 26.46 29.5814 26.56 29.5814Z" fill="black"/>
<path d="M63.2302 63.5815H11.7402C11.6093 63.5819 11.4796 63.5554 11.3592 63.5039C11.2388 63.4523 11.1303 63.3766 11.0402 63.2815C10.9497 63.1854 10.8792 63.0722 10.8329 62.9486C10.7865 62.825 10.7652 62.6934 10.7702 62.5615C10.9102 59.7215 11.0802 56.8615 11.3602 55.2315C12.6302 47.4415 22.8402 45.2815 24.0002 45.0615C25.1102 44.6315 26.5402 43.5715 26.8102 43.3615C27.9102 42.2215 28.6502 39.0815 28.7102 36.8015C28.7202 36.2615 29.1602 35.8115 29.7002 35.8615C30.2402 35.8715 30.6602 36.3215 30.6502 36.8515C30.5903 39.1015 29.8802 43.0615 28.1402 44.7815C28.1102 44.8115 28.0802 44.8315 28.0502 44.8615C27.9702 44.9215 26.1202 46.3615 24.5902 46.9115C24.5402 46.9315 24.4802 46.9415 24.4302 46.9515C24.3302 46.9715 14.3802 48.8215 13.2802 55.5515C13.0402 57.0015 12.8702 59.7615 12.7702 61.6415H62.2202C62.1203 59.7615 61.9602 57.0215 61.7102 55.5515C60.6202 48.8015 50.6802 46.9715 50.5702 46.9515C50.5156 46.9441 50.4619 46.9306 50.4102 46.9115C48.9302 46.3715 47.7402 45.6715 46.8702 44.8215C45.2502 43.2215 44.4202 39.5815 44.3402 36.8815C44.3202 36.3515 44.7402 35.9015 45.2803 35.8815H45.3102C45.8302 35.8815 46.2603 36.2915 46.2803 36.8215C46.3603 39.2015 47.1102 42.3315 48.2302 43.4415C48.8802 44.0815 49.8202 44.6315 51.0002 45.0715C52.1402 45.2915 62.3702 47.4515 63.6202 55.2515C63.8902 56.9015 64.0702 59.8815 64.2002 62.5715C64.2067 62.7035 64.1861 62.8356 64.1396 62.9594C64.0932 63.0832 64.022 63.1962 63.9302 63.2915C63.7446 63.4771 63.4928 63.5814 63.2302 63.5815Z" fill="black"/>
<path d="M37.4901 49.4915C33.9101 49.4915 30.3401 47.9415 26.8001 44.8415C26.6077 44.6711 26.4903 44.4316 26.4735 44.175C26.4566 43.9185 26.5416 43.6657 26.7101 43.4715C27.0601 43.0715 27.6801 43.0315 28.0801 43.3815C34.4101 48.9115 40.5701 48.9115 46.9201 43.3915C47.0165 43.3079 47.1284 43.2441 47.2496 43.2038C47.3707 43.1635 47.4986 43.1476 47.6259 43.1569C47.7532 43.1661 47.8774 43.2005 47.9914 43.2579C48.1053 43.3154 48.2069 43.3948 48.2901 43.4915C48.6401 43.8915 48.6001 44.5116 48.1901 44.8615C44.6301 47.9416 41.0501 49.4915 37.4901 49.4915ZM45.7201 20.6915C38.3101 20.6915 32.4301 16.4715 30.4101 14.8215C28.7201 16.4615 25.7301 18.5415 25.5901 18.6415C25.1501 18.9415 24.5501 18.8315 24.2401 18.3915C24.1664 18.287 24.1144 18.1687 24.0871 18.0438C24.0598 17.9188 24.0577 17.7897 24.081 17.6639C24.1043 17.5382 24.1525 17.4183 24.2227 17.3115C24.293 17.2046 24.3839 17.1128 24.4901 17.0415C25.5701 16.2915 28.6001 14.0815 29.5901 12.8615C29.6744 12.7576 29.7791 12.672 29.8978 12.6101C30.0165 12.5482 30.1466 12.5113 30.2801 12.5015C30.5501 12.4815 30.8101 12.5815 31.0101 12.7615C31.1001 12.8415 39.5901 20.6315 49.6401 18.2915C49.7635 18.2627 49.8914 18.2584 50.0165 18.2789C50.1416 18.2995 50.2615 18.3444 50.3692 18.4113C50.4769 18.4782 50.5704 18.5656 50.6443 18.6686C50.7183 18.7716 50.7712 18.8881 50.8001 19.0115C50.829 19.135 50.8333 19.2629 50.8127 19.388C50.7922 19.5131 50.7472 19.6329 50.6803 19.7407C50.6135 19.8484 50.526 19.9419 50.4231 20.0158C50.3201 20.0897 50.2035 20.1427 50.0801 20.1715C48.5801 20.5315 47.1201 20.6915 45.7201 20.6915Z" fill="black"/>
</g>
<defs>
<clipPath id="clip0_1_314">
<rect width="64" height="64" fill="white" transform="translate(0.200195 0.211426)"/>
</clipPath>
</defs>
</svg>
