<svg width="65" height="65" viewBox="0 0 65 65" fill="none" xmlns="http://www.w3.org/2000/svg">
<g clip-path="url(#clip0_1_323)">
<path d="M19.7216 23.6766C19.9478 23.3765 20.1002 23.0275 20.1667 22.6577C20.2331 22.2879 20.2117 21.9076 20.1041 21.5476L19.5351 19.6051L21.0186 18.4986C21.4252 18.1952 21.726 17.7715 21.8785 17.2876C22.031 16.8037 22.0273 16.2841 21.8681 15.8024C21.7089 15.3206 21.4021 14.9012 20.9913 14.6035C20.5805 14.3058 20.0864 14.1449 19.5791 14.1436H17.6446L17.0276 12.2961C16.8679 11.8159 16.5612 11.3981 16.1508 11.102C15.7403 10.8059 15.2471 10.6466 14.7411 10.6466C14.235 10.6466 13.7418 10.8059 13.3314 11.102C12.921 11.3981 12.6142 11.8159 12.4546 12.2961L11.8376 14.1431H9.90257C9.39513 14.1444 8.90097 14.3053 8.49008 14.6031C8.0792 14.9008 7.77244 15.3204 7.61325 15.8022C7.45406 16.284 7.45052 16.8037 7.60314 17.2876C7.75575 17.7716 8.05678 18.1952 8.46357 18.4986L9.94707 19.6051L9.37807 21.5476C9.27046 21.9076 9.24901 22.2879 9.31545 22.6577C9.3819 23.0275 9.53437 23.3765 9.76057 23.6766C9.98575 23.9766 10.2774 24.2203 10.6126 24.3886C10.9478 24.5569 11.3175 24.6452 11.6926 24.6466C12.1882 24.6466 12.6715 24.4929 13.0761 24.2066L14.7411 23.0366L16.4061 24.2066C16.8106 24.4929 17.294 24.6466 17.7896 24.6466C18.1647 24.6452 18.5343 24.5569 18.8695 24.3886C19.2048 24.2203 19.4964 23.9766 19.7216 23.6766ZM14.9756 20.7566C14.907 20.7081 14.8251 20.6821 14.7411 20.6821C14.6571 20.6821 14.5752 20.7081 14.5066 20.7566L11.9261 22.5706C11.8581 22.6196 11.7764 22.6462 11.6926 22.6466C11.6279 22.6459 11.5643 22.6302 11.5068 22.6007C11.4492 22.5712 11.3993 22.5288 11.361 22.4767C11.3227 22.4246 11.297 22.3643 11.286 22.3006C11.275 22.2369 11.279 22.1715 11.2976 22.1096L12.1751 19.1136C12.1993 19.0315 12.1978 18.944 12.1709 18.8628C12.144 18.7816 12.093 18.7105 12.0246 18.6591L9.65957 16.8956C9.58952 16.8435 9.53755 16.7708 9.51099 16.6876C9.48442 16.6045 9.48458 16.5151 9.51146 16.432C9.53834 16.349 9.59057 16.2764 9.66081 16.2246C9.73106 16.1728 9.81578 16.1443 9.90307 16.1431H12.9831C13.0695 16.1428 13.1536 16.1153 13.2235 16.0645C13.2934 16.0137 13.3456 15.9422 13.3726 15.8601L14.3516 12.9301C14.3783 12.8478 14.4303 12.7761 14.5003 12.7252C14.5703 12.6744 14.6546 12.647 14.7411 12.647C14.8276 12.647 14.9119 12.6744 14.9818 12.7252C15.0518 12.7761 15.1039 12.8478 15.1306 12.9301L16.1096 15.8601C16.1366 15.9422 16.1887 16.0137 16.2586 16.0645C16.3285 16.1153 16.4127 16.1428 16.4991 16.1431H19.5791C19.6664 16.1443 19.7511 16.1728 19.8213 16.2246C19.8916 16.2764 19.9438 16.349 19.9707 16.432C19.9976 16.5151 19.9977 16.6045 19.9712 16.6876C19.9446 16.7708 19.8926 16.8435 19.8226 16.8956L17.4576 18.6591C17.3893 18.7106 17.3383 18.7817 17.3115 18.8629C17.2847 18.9441 17.2833 19.0316 17.3076 19.1136L18.1846 22.1096C18.2032 22.1715 18.2071 22.2369 18.1961 22.3006C18.1851 22.3643 18.1594 22.4246 18.1211 22.4767C18.0828 22.5288 18.0329 22.5712 17.9754 22.6007C17.9178 22.6302 17.8542 22.6459 17.7896 22.6466C17.7057 22.6462 17.6241 22.6196 17.5561 22.5706L14.9756 20.7566ZM57.3671 15.7971C57.2083 15.3156 56.9017 14.8966 56.4909 14.5996C56.0801 14.3026 55.586 14.1429 55.0791 14.1431H53.1446L52.5276 12.2961C52.3679 11.8159 52.0612 11.3981 51.6508 11.102C51.2403 10.8059 50.7471 10.6466 50.2411 10.6466C49.735 10.6466 49.2418 10.8059 48.8314 11.102C48.421 11.3981 48.1142 11.8159 47.9546 12.2961L47.3376 14.1431H45.4026C44.8951 14.1444 44.401 14.3053 43.9901 14.6031C43.5792 14.9008 43.2724 15.3204 43.1132 15.8022C42.9541 16.284 42.9505 16.8037 43.1031 17.2876C43.2558 17.7716 43.5568 18.1952 43.9636 18.4986L45.4471 19.6051L44.8781 21.5476C44.7705 21.9076 44.749 22.2879 44.8155 22.6577C44.8819 23.0275 45.0344 23.3765 45.2606 23.6766C45.4857 23.9766 45.7774 24.2203 46.1126 24.3886C46.4478 24.5569 46.8175 24.6452 47.1926 24.6466C47.6882 24.6466 48.1715 24.4929 48.5761 24.2066L50.2411 23.0366L51.9061 24.2066C52.3106 24.4929 52.794 24.6466 53.2896 24.6466C53.6647 24.6452 54.0343 24.5569 54.3695 24.3886C54.7048 24.2203 54.9964 23.9766 55.2216 23.6766C55.4478 23.3765 55.6002 23.0275 55.6667 22.6577C55.7331 22.2879 55.7117 21.9076 55.6041 21.5476L55.0351 19.6051L56.5186 18.4986C56.9263 18.1949 57.2278 17.7703 57.3802 17.2852C57.5325 16.8001 57.5279 16.2794 57.3671 15.7971ZM55.3226 16.8956L52.9576 18.6591C52.8893 18.7106 52.8383 18.7817 52.8115 18.8629C52.7847 18.9441 52.7833 19.0316 52.8076 19.1136L53.6846 22.1096C53.7032 22.1715 53.7071 22.2369 53.6961 22.3006C53.6851 22.3643 53.6594 22.4246 53.6211 22.4767C53.5828 22.5288 53.5329 22.5712 53.4754 22.6007C53.4178 22.6302 53.3542 22.6459 53.2896 22.6466C53.2057 22.6462 53.1241 22.6196 53.0561 22.5706L50.4756 20.7561C50.407 20.7076 50.3251 20.6816 50.2411 20.6816C50.1571 20.6816 50.0752 20.7076 50.0066 20.7561L47.4261 22.5706C47.3581 22.6196 47.2764 22.6462 47.1926 22.6466C47.1279 22.6459 47.0643 22.6302 47.0068 22.6007C46.9492 22.5712 46.8993 22.5288 46.861 22.4767C46.8227 22.4246 46.797 22.3643 46.786 22.3006C46.775 22.2369 46.779 22.1715 46.7976 22.1096L47.6751 19.1136C47.6993 19.0315 47.6978 18.944 47.6709 18.8628C47.644 18.7816 47.593 18.7105 47.5246 18.6591L45.1596 16.8956C45.0895 16.8435 45.0376 16.7708 45.011 16.6876C44.9844 16.6045 44.9846 16.5151 45.0115 16.432C45.0383 16.349 45.0906 16.2764 45.1608 16.2246C45.2311 16.1728 45.3158 16.1443 45.4031 16.1431H48.4831C48.5695 16.1428 48.6536 16.1153 48.7235 16.0645C48.7934 16.0137 48.8456 15.9422 48.8726 15.8601L49.8516 12.9301C49.8783 12.8478 49.9303 12.7761 50.0003 12.7252C50.0703 12.6744 50.1546 12.647 50.2411 12.647C50.3276 12.647 50.4118 12.6744 50.4818 12.7252C50.5518 12.7761 50.6039 12.8478 50.6306 12.9301L51.6096 15.8601C51.6366 15.9422 51.6887 16.0137 51.7586 16.0645C51.8285 16.1153 51.9127 16.1428 51.9991 16.1431H55.0791C55.1664 16.1443 55.2511 16.1728 55.3213 16.2246C55.3916 16.2764 55.4438 16.349 55.4707 16.432C55.4976 16.5151 55.4977 16.6045 55.4712 16.6876C55.4446 16.7708 55.3926 16.8435 55.3226 16.8956ZM21.9991 10.6546L25.9506 13.4366L24.5116 18.0736C24.4 18.4261 24.3738 18.8001 24.4351 19.1648C24.4964 19.5295 24.6434 19.8743 24.8641 20.1711C25.2295 20.6671 25.7719 21.0034 26.3787 21.1103C26.9855 21.2172 27.6101 21.0864 28.1231 20.7451L32.4911 17.8461L36.8591 20.7451C37.372 21.0864 37.9967 21.2172 38.6034 21.1103C39.2102 21.0034 39.7526 20.6671 40.1181 20.1711C40.3387 19.8743 40.4857 19.5295 40.547 19.1648C40.6083 18.8001 40.5821 18.4261 40.4706 18.0736L39.0311 13.4366L42.9826 10.6546C43.3955 10.3639 43.7049 9.94891 43.8655 9.4701C44.026 8.99129 44.0295 8.4737 43.8753 7.9928C43.721 7.5119 43.4172 7.09284 43.0082 6.79671C42.5991 6.50059 42.1061 6.34288 41.6011 6.34658H36.3781L34.7451 1.73258C34.5783 1.26839 34.2723 0.867004 33.8689 0.58325C33.4655 0.299496 32.9843 0.147217 32.4911 0.147217C31.9978 0.147217 31.5166 0.299496 31.1132 0.58325C30.7098 0.867004 30.4038 1.26839 30.2371 1.73258L28.6041 6.34658H23.3811C22.876 6.34277 22.383 6.5004 21.9738 6.79649C21.5646 7.09258 21.2607 7.51164 21.1065 7.99256C20.9522 8.47348 20.9556 8.99112 21.1161 9.46998C21.2767 9.94884 21.5861 10.3639 21.9991 10.6546ZM23.3811 8.34658H29.7386C29.8186 8.34748 29.8969 8.32367 29.9629 8.27839C30.0288 8.2331 30.0792 8.16856 30.1071 8.09358L32.1221 2.39958C32.1506 2.32485 32.2012 2.26054 32.2671 2.21518C32.333 2.16981 32.4111 2.14552 32.4911 2.14552C32.5711 2.14552 32.6492 2.16981 32.7151 2.21518C32.781 2.26054 32.8315 2.32485 32.8601 2.39958L34.8751 8.09358C34.903 8.16856 34.9533 8.2331 35.0193 8.27839C35.0852 8.32367 35.1636 8.34748 35.2436 8.34658H41.6011C41.6812 8.34266 41.7604 8.36489 41.8268 8.40991C41.8932 8.45492 41.9431 8.52029 41.9692 8.59617C41.9952 8.67205 41.9958 8.75433 41.971 8.8306C41.9462 8.90688 41.8972 8.97303 41.8316 9.01908L36.9106 12.4841C36.8468 12.5278 36.7985 12.5908 36.7729 12.6638C36.7473 12.7368 36.7456 12.816 36.7681 12.8901L38.5606 18.6666C38.5767 18.7237 38.5792 18.7838 38.5677 18.842C38.5563 18.9002 38.5313 18.9549 38.4948 19.0017C38.4583 19.0484 38.4112 19.0859 38.3575 19.1111C38.3038 19.1363 38.2449 19.1484 38.1856 19.1466C38.107 19.1463 38.0302 19.1226 37.9651 19.0786L32.7131 15.5931C32.6471 15.5497 32.57 15.5266 32.4911 15.5266C32.4122 15.5266 32.335 15.5497 32.2691 15.5931L27.0171 19.0786C26.9518 19.1227 26.8749 19.1464 26.7961 19.1466C26.7368 19.1483 26.678 19.1361 26.6243 19.1109C26.5706 19.0857 26.5237 19.0482 26.4872 19.0015C26.4507 18.9547 26.4258 18.9 26.4144 18.8419C26.403 18.7837 26.4054 18.7236 26.4216 18.6666L28.2141 12.8901C28.2367 12.816 28.235 12.7366 28.2094 12.6635C28.1838 12.5904 28.1355 12.5274 28.0716 12.4836L23.1506 9.01908C23.0849 8.97303 23.036 8.90688 23.0112 8.8306C22.9863 8.75433 22.987 8.67205 23.013 8.59617C23.039 8.52029 23.089 8.45492 23.1553 8.40991C23.2217 8.36489 23.301 8.34266 23.3811 8.34658ZM37.1576 42.1466H27.8241C21.9336 42.1466 17.4911 46.3026 17.4911 51.8131V63.1466C17.4911 63.4118 17.5964 63.6662 17.784 63.8537C17.9715 64.0412 18.2259 64.1466 18.4911 64.1466C18.7563 64.1466 19.0106 64.0412 19.1982 63.8537C19.3857 63.6662 19.4911 63.4118 19.4911 63.1466V51.8131C19.4911 47.3706 22.9961 44.1466 27.8241 44.1466H37.1576C41.9866 44.1466 45.4911 47.3706 45.4911 51.8131V63.1466C45.4911 63.4118 45.5964 63.6662 45.784 63.8537C45.9715 64.0412 46.2259 64.1466 46.4911 64.1466C46.7563 64.1466 47.0106 64.0412 47.1982 63.8537C47.3857 63.6662 47.4911 63.4118 47.4911 63.1466V51.8131C47.4911 46.3026 43.0486 42.1466 37.1576 42.1466ZM32.4911 25.1466C31.0077 25.1466 29.5577 25.5864 28.3243 26.4106C27.0909 27.2347 26.1296 28.406 25.562 29.7765C24.9943 31.1469 24.8458 32.6549 25.1352 34.1098C25.4246 35.5646 26.1389 36.901 27.1878 37.9499C28.2367 38.9988 29.573 39.7131 31.0279 40.0025C32.4827 40.2919 33.9907 40.1433 35.3612 39.5757C36.7316 39.008 37.903 38.0467 38.7271 36.8134C39.5512 35.58 39.9911 34.1299 39.9911 32.6466C39.9888 30.6581 39.1979 28.7518 37.7919 27.3458C36.3858 25.9397 34.4795 25.1488 32.4911 25.1466ZM32.4911 38.1466C31.4033 38.1466 30.3399 37.824 29.4354 37.2197C28.531 36.6153 27.826 35.7563 27.4097 34.7513C26.9935 33.7463 26.8845 32.6405 27.0968 31.5736C27.309 30.5067 27.8328 29.5267 28.602 28.7575C29.3712 27.9883 30.3512 27.4645 31.4181 27.2523C32.485 27.04 33.5908 27.149 34.5958 27.5652C35.6008 27.9815 36.4598 28.6865 37.0642 29.5909C37.6685 30.4954 37.9911 31.5588 37.9911 32.6466C37.9895 34.1048 37.4095 35.5028 36.3784 36.5339C35.3473 37.565 33.9493 38.145 32.4911 38.1466Z" fill="black"/>
<path d="M24.4912 59.1465C24.226 59.1465 23.9716 59.2518 23.7841 59.4394C23.5966 59.6269 23.4912 59.8813 23.4912 60.1465V63.1465C23.4912 63.4117 23.5966 63.6661 23.7841 63.8536C23.9716 64.0411 24.226 64.1465 24.4912 64.1465C24.7564 64.1465 25.0108 64.0411 25.1983 63.8536C25.3859 63.6661 25.4912 63.4117 25.4912 63.1465V60.1465C25.4912 59.8813 25.3859 59.6269 25.1983 59.4394C25.0108 59.2518 24.7564 59.1465 24.4912 59.1465ZM40.4912 59.1465C40.226 59.1465 39.9716 59.2518 39.7841 59.4394C39.5966 59.6269 39.4912 59.8813 39.4912 60.1465V63.1465C39.4912 63.4117 39.5966 63.6661 39.7841 63.8536C39.9716 64.0411 40.226 64.1465 40.4912 64.1465C40.7564 64.1465 41.0108 64.0411 41.1983 63.8536C41.3859 63.6661 41.4912 63.4117 41.4912 63.1465V60.1465C41.4912 59.8813 41.3859 59.6269 41.1983 59.4394C41.0108 59.2518 40.7564 59.1465 40.4912 59.1465Z" fill="black"/>
</g>
<defs>
<clipPath id="clip0_1_323">
<rect width="64" height="64" fill="white" transform="translate(0.491211 0.146484)"/>
</clipPath>
</defs>
</svg>
